<svg width="200" height="56" viewBox="0 0 200 56" fill="none" xmlns="http://www.w3.org/2000/svg">
<g clip-path="url(#clip0_51_4)">
<path d="M98.1665 19.6579C99.2902 19.6579 100.314 19.4917 101.238 19.1625C102.163 18.8334 102.851 18.5076 103.303 18.1918L105.65 22.8494C105.075 23.3382 104.094 23.8335 102.708 24.3355C101.321 24.8375 99.6725 25.0868 97.7642 25.0868C95.979 25.0868 94.3034 24.7743 92.7409 24.1527C91.1784 23.531 89.7987 22.6533 88.6052 21.5196C87.4117 20.3893 86.4775 19.0628 85.7993 17.5402C85.1211 16.0176 84.782 14.3653 84.782 12.58C84.782 10.7947 85.1178 9.13579 85.7893 7.59986C86.4609 6.06725 87.3951 4.7308 88.5852 3.59381C89.7754 2.45682 91.1584 1.5725 92.7309 0.944165C94.3001 0.31583 95.9756 0 97.7609 0C99.6692 0 101.315 0.249339 102.704 0.751342C104.091 1.25335 105.072 1.7487 105.647 2.2374L103.3 6.89506C102.847 6.56593 102.159 6.23681 101.235 5.91433C100.311 5.59185 99.2869 5.42895 98.1632 5.42895C96.9165 5.42895 95.8261 5.62177 94.8985 6.00741C93.971 6.39306 93.193 6.92166 92.568 7.59321C91.943 8.26476 91.4809 9.02276 91.175 9.86718C90.8692 10.7116 90.7163 11.5959 90.7163 12.5268C90.7163 13.4577 90.8692 14.3653 91.175 15.213C91.4809 16.0641 91.9463 16.8221 92.568 17.497C93.193 18.1685 93.9676 18.6971 94.8985 19.0828C95.8261 19.4684 96.9165 19.6612 98.1632 19.6612" fill="#8E2D60"/>
<path d="M110.048 0.438843H115.534V19.8408H124.317V24.648H110.048V0.438843Z" fill="#8E2D60"/>
<path d="M133.722 12.5235C133.722 13.9065 134.008 15.1532 134.573 16.2735C135.142 17.3906 135.93 18.2816 136.94 18.9431C137.948 19.6047 139.118 19.9338 140.451 19.9338C141.784 19.9338 142.955 19.6047 143.962 18.9431C144.969 18.2816 145.76 17.3939 146.329 16.2735C146.897 15.1532 147.183 13.9065 147.183 12.5235C147.183 11.1405 146.901 9.89378 146.329 8.78339C145.76 7.66967 144.972 6.78203 143.962 6.1138C142.955 5.44889 141.784 5.11311 140.451 5.11311C139.118 5.11311 137.948 5.44557 136.94 6.1138C135.933 6.78203 135.142 7.66967 134.573 8.78339C134.005 9.8971 133.722 11.1438 133.722 12.5235ZM128.021 12.5235C128.021 10.7615 128.333 9.12249 128.955 7.59986C129.58 6.07723 130.451 4.74742 131.578 3.61043C132.702 2.47344 134.025 1.58912 135.541 0.950812C137.057 0.315828 138.696 -0.00332642 140.454 -0.00332642C142.213 -0.00332642 143.885 0.315828 145.398 0.950812C146.907 1.5858 148.221 2.47344 149.341 3.61043C150.458 4.74742 151.326 6.07723 151.944 7.59986C152.562 9.12249 152.868 10.7615 152.868 12.5235C152.868 14.2855 152.569 15.9444 151.971 17.467C151.372 18.9897 150.514 20.3228 149.404 21.4664C148.29 22.6101 146.977 23.4977 145.461 24.1327C143.945 24.7677 142.276 25.0869 140.454 25.0869C138.633 25.0869 136.907 24.7677 135.385 24.1327C133.862 23.4977 132.552 22.6068 131.452 21.4664C130.351 20.3228 129.503 18.9897 128.912 17.467C128.32 15.9444 128.024 14.2988 128.024 12.5235" fill="#8E2D60"/>
<path d="M170.914 0.438843H176.396V15.3128C176.396 17.3041 176.004 19.0329 175.222 20.4924C174.441 21.9552 173.321 23.0855 171.865 23.8867C170.408 24.6879 168.673 25.0869 166.658 25.0869C164.644 25.0869 162.882 24.6846 161.412 23.8867C159.946 23.0855 158.822 21.9552 158.048 20.4924C157.27 19.0329 156.884 17.3041 156.884 15.3128V0.438843H162.35V15.0169C162.35 16.1173 162.523 17.0448 162.872 17.8028C163.221 18.5608 163.719 19.1326 164.364 19.5183C165.013 19.9039 165.777 20.0967 166.658 20.0967C167.539 20.0967 168.277 19.9039 168.912 19.5183C169.547 19.1326 170.039 18.5608 170.388 17.8028C170.738 17.0448 170.91 16.1173 170.91 15.0169V0.438843H170.914Z" fill="#8E2D60"/>
<path d="M186.702 5.2993V19.7876H188.022C189.405 19.7876 190.548 19.4717 191.453 18.8434C192.357 18.2151 193.038 17.3507 193.497 16.2569C193.956 15.1632 194.185 13.9331 194.185 12.5634C194.185 11.1937 193.963 9.94365 193.517 8.84989C193.072 7.75612 192.39 6.89174 191.473 6.25343C190.555 5.61845 189.405 5.2993 188.025 5.2993H186.705H186.702ZM181.236 0.438843H188.517C191.097 0.438843 193.231 0.954144 194.927 1.98807C196.619 3.022 197.889 4.44822 198.733 6.27006C199.578 8.0919 200 10.1764 200 12.5235C200 14.8706 199.578 16.975 198.733 18.7935C197.889 20.6154 196.622 22.0449 194.927 23.0855C193.235 24.1261 191.097 24.6447 188.517 24.6447H181.236V0.438843Z" fill="#8E2D60"/>
<path d="M86.0087 30.323H97.9837V32.2479H88.0234V41.4368H97.342V43.3617H88.0234V54.5321H86.0087V30.323Z" fill="#FF0000"/>
<path d="M118.905 30.323H120.959V45.4329C120.959 47.4243 120.561 49.1331 119.759 50.5593C118.958 51.9856 117.881 53.076 116.521 53.834C115.165 54.592 113.642 54.971 111.957 54.971C110.271 54.971 108.758 54.592 107.389 53.834C106.019 53.076 104.932 51.9856 104.124 50.5593C103.316 49.1364 102.914 47.4276 102.914 45.4329V30.323H104.968V45.3232C104.968 46.8758 105.281 48.2255 105.906 49.3758C106.531 50.5261 107.369 51.4171 108.426 52.0521C109.483 52.687 110.66 53.0062 111.957 53.0062C113.253 53.0062 114.423 52.687 115.467 52.0521C116.511 51.4171 117.346 50.5228 117.971 49.3758C118.596 48.2255 118.908 46.8758 118.908 45.3232V30.323H118.905Z" fill="#FF0000"/>
<path d="M128.662 32.341L128.772 32.3609V54.5321H126.718V30.323H129.743L143.573 52.4942L143.48 52.5142V30.323H145.514V54.5321H142.472L128.662 32.341Z" fill="#FF0000"/>
<path d="M153.64 32.2678V52.5873H156.429C158.58 52.5873 160.332 52.1551 161.682 51.2841C163.031 50.4164 164.029 49.2196 164.67 47.7002C165.312 46.1776 165.638 44.4256 165.651 42.4475C165.664 40.4661 165.352 38.7141 164.717 37.1848C164.082 35.6555 163.081 34.4554 161.718 33.581C160.355 32.7067 158.59 32.2678 156.429 32.2678H153.64ZM151.602 30.323H156.592C159.172 30.323 161.286 30.8383 162.938 31.8722C164.587 32.9061 165.807 34.3323 166.595 36.1542C167.383 37.976 167.779 40.0605 167.779 42.4076C167.779 44.7547 167.386 46.8591 166.605 48.6777C165.824 50.4995 164.607 51.929 162.955 52.9696C161.303 54.0069 159.181 54.5288 156.592 54.5288H151.602V30.323Z" fill="#FF0000"/>
<path d="M175.425 30.323H173.354V54.5288H175.425V30.323Z" fill="#FF0000"/>
<path d="M188.85 29.8841C190.193 29.8841 191.34 30.0437 192.287 30.3595C193.235 30.6787 193.976 31.0111 194.515 31.3602C195.053 31.7093 195.366 31.932 195.449 32.0284L194.312 33.7539C194.129 33.5943 193.806 33.3616 193.348 33.0557C192.889 32.7499 192.3 32.4706 191.579 32.2213C190.858 31.9719 190.003 31.8456 189.012 31.8456C187.437 31.8456 186.193 32.1747 185.289 32.8363C184.385 33.4979 183.933 34.4121 183.933 35.5857C183.933 36.3802 184.172 37.0751 184.647 37.6668C185.123 38.2619 185.774 38.7938 186.602 39.2726C187.427 39.748 188.361 40.2267 189.398 40.7021C190.216 41.0678 191.04 41.4801 191.865 41.9322C192.689 42.3843 193.447 42.9163 194.139 43.528C194.83 44.1397 195.386 44.8478 195.808 45.6557C196.23 46.4635 196.439 47.3977 196.439 48.4616C196.439 49.429 196.243 50.3067 195.854 51.1012C195.462 51.8958 194.91 52.584 194.195 53.1658C193.481 53.7476 192.633 54.193 191.655 54.5055C190.678 54.818 189.601 54.9743 188.427 54.9743C187.034 54.9743 185.768 54.7948 184.631 54.4324C183.494 54.0734 182.576 53.6977 181.881 53.3154C181.183 52.9297 180.798 52.7003 180.724 52.6272L181.954 50.812C182.101 50.935 182.36 51.1145 182.732 51.3539C183.105 51.5933 183.574 51.8393 184.135 52.0953C184.697 52.3513 185.349 52.5673 186.09 52.7369C186.828 52.9098 187.633 52.9929 188.5 52.9929C190.382 52.9929 191.812 52.554 192.782 51.673C193.753 50.792 194.242 49.685 194.242 48.3552C194.242 47.3146 193.929 46.427 193.308 45.6856C192.683 44.9475 191.885 44.2959 190.904 43.7341C189.927 43.1722 188.906 42.6403 187.842 42.1383C186.715 41.613 185.698 41.0512 184.78 40.4495C183.863 39.851 183.128 39.1529 182.579 38.3583C182.031 37.5638 181.755 36.6096 181.755 35.4992C181.755 34.3889 182.071 33.4447 182.699 32.6036C183.331 31.7592 184.179 31.0976 185.249 30.6122C186.32 30.1301 187.52 29.8874 188.853 29.8874" fill="#FF0000"/>
<path d="M43.518 55.4364H15.8015V27.7199C15.8015 12.4104 28.2119 0 43.518 0C58.8241 0 71.2346 12.4104 71.2346 27.7166C71.2346 43.0227 58.8241 55.4331 43.518 55.4331" fill="#F48025"/>
<path d="M15.8015 55.4364H0V39.635C0 30.9081 7.07458 23.8335 15.8015 23.8335C24.5283 23.8335 31.6029 30.9081 31.6029 39.635C31.6029 48.3618 24.5283 55.4364 15.8015 55.4364Z" fill="#FF0000"/>
<path d="M31.6029 39.6316C31.6029 30.9978 24.6779 23.9831 16.0774 23.8368C15.8979 25.1068 15.8015 26.4 15.8015 27.7165V55.4331C24.5283 55.4331 31.6029 48.3585 31.6029 39.6316Z" fill="#8E2D60"/>
<path d="M42.9329 20.6087C40.3032 20.8182 38.0092 22.5635 36.9653 24.9871C36.337 26.4433 36.2705 27.8263 36.5265 29.0929C36.583 29.3722 36.4467 29.6581 36.1841 29.7711L19.372 36.9986C19.1525 37.0917 18.8899 37.0518 18.727 36.8756C17.9923 36.0977 16.955 35.6123 15.8048 35.6123C14.0959 35.6123 12.5234 36.6728 11.9982 38.2985C11.0939 41.0878 13.1485 43.661 15.8048 43.661C18.0255 43.661 19.8274 41.8591 19.8274 39.6383C19.8274 39.5386 19.7809 39.3424 19.8274 39.1928C19.8773 39.0366 20.0236 38.9268 20.0601 38.9102C24.2923 37.0917 36.9886 31.6328 36.9886 31.6328C37.2513 31.5198 37.5471 31.6162 37.7134 31.8489C39.1429 33.8569 41.5798 35.097 44.2926 34.8144C47.5772 34.4687 50.2568 31.8057 50.6125 28.5211C51.0813 24.2225 47.7268 20.5888 43.5213 20.5888C43.3252 20.5888 43.1323 20.5954 42.9329 20.612" fill="white"/>
</g>
<defs>
<clipPath id="clip0_51_4">
<rect width="200" height="55.4364" fill="white"/>
</clipPath>
</defs>
</svg>
