<svg width="20" height="20" viewBox="0 0 20 20" fill="none" xmlns="http://www.w3.org/2000/svg">
<path d="M0.305176 6.3042H4.70248V20H0.305176V6.3042Z" fill="white"/>
<path d="M2.50387 0C1.12324 0 0 1.12324 0 2.50387C0 3.88453 1.12324 5.00777 2.50387 5.00777C3.88453 5.00777 5.00777 3.88453 5.00777 2.50387C5.00773 1.12324 3.88449 0 2.50387 0Z" fill="white"/>
<path d="M19.2174 10.4392C19.1594 7.88666 17.0699 5.88721 14.4606 5.88721C13.0159 5.88721 11.6744 6.5274 10.7746 7.62338V6.3042H6.59375V20.0001H10.9911V12.0834C10.9911 11.0286 11.8492 10.1705 12.904 10.1705C13.9587 10.1705 14.8168 11.0285 14.8168 12.0835L14.8215 20.0001H19.2188L19.2174 10.4392Z" fill="white"/>
</svg>
