<svg width="360" height="310" viewBox="0 0 360 310" fill="none" xmlns="http://www.w3.org/2000/svg">
<mask id="mask0_242_12949" style="mask-type:alpha" maskUnits="userSpaceOnUse" x="0" y="0" width="360" height="310">
<rect width="360" height="310" fill="#F2F2F2"/>
</mask>
<g mask="url(#mask0_242_12949)">
<mask id="mask1_242_12949" style="mask-type:alpha" maskUnits="userSpaceOnUse" x="0" y="-110" width="360" height="420">
<rect y="-110" width="360" height="420" fill="#F2F2F2"/>
</mask>
<g mask="url(#mask1_242_12949)">
<path d="M332.736 289.263H297.36V324.652H332.736V289.263ZM287.931 279.826H342.165V334.08H287.931V279.826Z" fill="#EBEBEB"/>
<path d="M325.962 317.877H304.133V296.039H325.962V317.877Z" fill="#EBEBEB"/>
<path d="M377.349 244.633H341.972V280.023H377.349V244.633ZM332.544 235.201H386.777V289.455H332.544V235.201Z" fill="#EBEBEB"/>
<path d="M370.575 273.247H348.746V251.409H370.575V273.247Z" fill="#EBEBEB"/>
<path d="M380.735 329.192H355.255V303.702H380.735V329.192Z" fill="#EBEBEB"/>
<path d="M318.297 266.736H292.816V241.245H318.297V266.736Z" fill="#EBEBEB"/>
<path d="M244.288 189.222H218.807V163.732H244.288V189.222Z" fill="#EBEBEB"/>
<path d="M359.072 230.111H386.005V203.169C386.005 188.288 373.947 176.231 359.072 176.231C344.198 176.231 332.139 188.294 332.139 203.169C332.139 218.043 344.198 230.111 359.072 230.111Z" fill="#EBEBEB"/>
<path d="M359.658 214.225C365.788 214.225 370.762 209.254 370.762 203.117C370.762 196.979 365.788 192.009 359.658 192.009C353.528 192.009 348.554 196.979 348.554 203.117C348.554 209.254 353.528 214.225 359.658 214.225Z" fill="#F2F2F2"/>
<path d="M308.806 159.717H273.43V195.106H308.806V159.717ZM264.001 150.284H318.235V204.538H264.001V150.284Z" fill="#EBEBEB"/>
<path d="M302.032 188.33H280.203V166.492H302.032V188.33Z" fill="#EBEBEB"/>
<path d="M353.419 115.092H318.043V150.481H353.419V115.092ZM308.614 105.654H362.848V159.908H308.614V105.654Z" fill="#EBEBEB"/>
<path d="M346.646 143.705H324.816V121.868H346.646V143.705Z" fill="#EBEBEB"/>
<path d="M53.6423 317.207H18.2662V352.597H53.6423V317.207ZM8.8374 362.029V307.77H63.0711V362.029H8.8374Z" fill="#EBEBEB"/>
<path d="M213.149 158.824H187.668V133.334H213.149V158.824Z" fill="#EBEBEB"/>
<path d="M119.156 307.765H70.1194V356.82C70.1194 383.913 92.0732 405.875 119.156 405.875C146.24 405.875 168.193 383.913 168.193 356.82C168.193 329.727 146.24 307.765 119.156 307.765Z" fill="#EBEBEB"/>
<path d="M384.299 49.0553V2.28882e-05H335.262C308.178 2.28882e-05 286.225 21.962 286.225 49.0553C286.225 76.1486 308.178 98.1107 335.262 98.1107C362.345 98.1107 384.299 76.1486 384.299 49.0553Z" fill="#EBEBEB"/>
<path d="M346.656 49.0554C346.656 42.762 341.558 37.662 335.267 37.662C328.976 37.662 323.877 42.762 323.877 49.0554C323.877 55.3488 328.976 60.449 335.267 60.449C341.558 60.449 346.656 55.3488 346.656 49.0554Z" fill="#F2F2F2"/>
<path d="M115.111 255.716H79.7349V291.105H115.111V255.716ZM70.3062 246.283H124.54V300.537H70.3062V246.283Z" fill="#EBEBEB"/>
<path d="M108.338 284.329H86.5083V262.492H108.338V284.329Z" fill="#EBEBEB"/>
<path d="M159.724 211.086H124.348V246.475H159.724V211.086ZM114.919 201.654H169.153V255.908H114.919V201.654Z" fill="#EBEBEB"/>
<path d="M152.951 239.699H131.121V217.862H152.951V239.699Z" fill="#EBEBEB"/>
<path d="M163.111 295.65H137.63V270.16H163.111V295.65Z" fill="#EBEBEB"/>
<path d="M225.233 201.648H176.196V250.704C176.196 277.797 198.15 299.759 225.233 299.759C252.316 299.759 274.27 277.797 274.27 250.704C274.27 223.61 252.316 201.648 225.233 201.648Z" fill="#EBEBEB"/>
<path d="M225.233 239.305C218.942 239.305 213.844 244.405 213.844 250.699C213.844 256.992 218.942 262.092 225.233 262.092C231.524 262.092 236.622 256.992 236.622 250.699C236.622 244.405 231.524 239.305 225.233 239.305Z" fill="#F2F2F2"/>
<path d="M141.447 196.564H168.375V169.621C168.375 154.741 156.317 142.684 141.447 142.684C126.578 142.684 114.515 154.746 114.515 169.621C114.515 184.496 126.573 196.564 141.447 196.564Z" fill="#EBEBEB"/>
<path d="M257.093 135.254H284.025V108.311C284.025 93.431 271.967 81.3733 257.093 81.3733C242.218 81.3733 230.16 93.4361 230.16 108.311C230.16 123.186 242.218 135.254 257.093 135.254Z" fill="#EBEBEB"/>
<path d="M223.013 307.23H272.05V356.286C272.05 383.379 250.096 405.341 223.013 405.341C195.93 405.341 173.976 383.379 173.976 356.286C173.976 329.192 195.93 307.23 223.013 307.23Z" fill="#EBEBEB"/>
<path d="M142.039 180.682C148.169 180.682 153.143 175.707 153.143 169.574C153.143 163.442 148.169 158.466 142.039 158.466C135.908 158.466 130.935 163.437 130.935 169.574C130.935 175.712 135.908 180.682 142.039 180.682Z" fill="#F2F2F2"/>
<path d="M257.679 119.367C263.809 119.367 268.783 114.392 268.783 108.259C268.783 102.126 263.809 97.1508 257.679 97.1508C251.548 97.1508 246.575 102.121 246.575 108.259C246.575 114.397 251.548 119.367 257.679 119.367Z" fill="#F2F2F2"/>
</g>
</g>
</svg>
